HIERARCHY
ROOT Hips
{
	OFFSET 0.00000 0.00000 0.00000
	CHANNELS 6 Xposition Yposition Zposition Zrotation Yrotation Xrotation 
	JOINT LHipJoint
	{
		OFFSET 0 0 0
		CHANNELS 3 Zrotation Yrotation Xrotation
		JOINT LeftUpLeg
		{
			OFFSET 1.86795 -1.59681 0.65681
			CHANNELS 3 Zrotation Yrotation Xrotation
			JOINT LeftLeg
			{
				OFFSET 2.30491 -6.33268 0.00000
				CHANNELS 3 Zrotation Yrotation Xrotation
				JOINT LeftFoot
				{
					OFFSET 2.46780 -6.78022 0.00000
					CHANNELS 3 Zrotation Yrotation Xrotation
					JOINT LeftToeBase
					{
						OFFSET 0.07897 -0.21698 1.59652
						CHANNELS 3 Zrotation Yrotation Xrotation
						End Site
						{
							OFFSET 0.00000 -0.00000 0.82310
						}
					}
				}
			}
		}
	}
	JOINT RHipJoint
	{
		OFFSET 0 0 0
		CHANNELS 3 Zrotation Yrotation Xrotation
		JOINT RightUpLeg
		{
			OFFSET -1.93650 -1.59681 0.65681
			CHANNELS 3 Zrotation Yrotation Xrotation
			JOINT RightLeg
			{
				OFFSET -2.29410 -6.30299 0.00000
				CHANNELS 3 Zrotation Yrotation Xrotation
				JOINT RightFoot
				{
					OFFSET -2.48738 -6.83403 0.00000
					CHANNELS 3 Zrotation Yrotation Xrotation
					JOINT RightToeBase
					{
						OFFSET -0.08699 -0.23899 1.89395
						CHANNELS 3 Zrotation Yrotation Xrotation
						End Site
						{
							OFFSET -0.00000 -0.00000 0.96904
						}
					}
				}
			}
		}
	}
	JOINT LowerBack
	{
		OFFSET 0 0 0
		CHANNELS 3 Zrotation Yrotation Xrotation
		JOINT Spine
		{
			OFFSET 0.03629 1.99740 -0.07548
			CHANNELS 3 Zrotation Yrotation Xrotation
			JOINT Spine1
			{
				OFFSET 0.03970 1.94298 0.17218
				CHANNELS 3 Zrotation Yrotation Xrotation
				JOINT Neck
				{
					OFFSET 0 0 0
					CHANNELS 3 Zrotation Yrotation Xrotation
					JOINT Neck1
					{
						OFFSET -0.05054 1.79469 0.04241
						CHANNELS 3 Zrotation Yrotation Xrotation
						JOINT Head
						{
							OFFSET 0.05195 1.78475 -0.22133
							CHANNELS 3 Zrotation Yrotation Xrotation
							End Site
							{
								OFFSET 0.02420 1.80711 -0.07950
							}
						}
					}
				}
				JOINT LeftShoulder
				{
					OFFSET 0 0 0
					CHANNELS 3 Zrotation Yrotation Xrotation
					JOINT LeftArm
					{
						OFFSET 2.92134 1.19850 0.36056
						CHANNELS 3 Zrotation Yrotation Xrotation
						JOINT LeftForeArm
						{
							OFFSET 4.84137 -0.00000 0.00000
							CHANNELS 3 Zrotation Yrotation Xrotation
							JOINT LeftHand
							{
								OFFSET 3.24520 -0.00000 -0.00000
								CHANNELS 3 Zrotation Yrotation Xrotation
								JOINT LeftFingerBase
								{
									OFFSET 0 0 0
									CHANNELS 3 Zrotation Yrotation Xrotation
									JOINT LeftHandIndex1
									{
										OFFSET 0.52122 -0.00000 0.00000
										CHANNELS 3 Zrotation Yrotation Xrotation
										End Site
										{
											OFFSET 0.42022 -0.00000 0.00000
										}
									}
								}
								JOINT LThumb
								{
									OFFSET 0 0 0
									CHANNELS 3 Zrotation Yrotation Xrotation
									End Site
									{
										OFFSET 0.42664 -0.00000 0.42664
									}
								}
							}
						}
					}
				}
				JOINT RightShoulder
				{
					OFFSET 0 0 0
					CHANNELS 3 Zrotation Yrotation Xrotation
					JOINT RightArm
					{
						OFFSET -2.84327 1.20795 0.50191
						CHANNELS 3 Zrotation Yrotation Xrotation
						JOINT RightForeArm
						{
							OFFSET -4.72284 -0.00000 0.00000
							CHANNELS 3 Zrotation Yrotation Xrotation
							JOINT RightHand
							{
								OFFSET -3.23459 -0.00000 0.00000
								CHANNELS 3 Zrotation Yrotation Xrotation
								JOINT RightFingerBase
								{
									OFFSET 0 0 0
									CHANNELS 3 Zrotation Yrotation Xrotation
									JOINT RightHandIndex1
									{
										OFFSET -0.30742 -0.00000 0.00000
										CHANNELS 3 Zrotation Yrotation Xrotation
										End Site
										{
											OFFSET -0.24785 -0.00000 0.00000
										}
									}
								}
								JOINT RThumb
								{
									OFFSET 0 0 0
									CHANNELS 3 Zrotation Yrotation Xrotation
									End Site
									{
										OFFSET -0.25163 -0.00000 0.25163
									}
								}
							}
						}
					}
				}
			}
		}
	}
}
MOTION
Frames: 11
Frame Time: .0083333
3.6585 16.6751 -0.2473 -355.2220 -24.9919 -1049.2300 0.0000 0.0000 0.0000 -3.3302 -25.5315 -42.2669 7.3195 15.5952 50.0726 1.2220 5.9507 19.7743 0.0455 1.3771 3.7872 0.0000 0.0000 0.0000 -0.2911 32.3473 -53.5365 -4.3643 -12.6301 37.9990 0.2785 -9.6413 -6.2261 -0.2660 3.3179 -9.1650 0.9841 -1.8709 15.1977 1.4391 -2.1364 -6.8469 1.7109 -0.9735 -16.3900 -5.6414 1.6401 -10.6373 2.1417 2.7793 23.8937 1.9805 0.9703 9.1339 -0.0000 -0.0000 0.0000 -83.5055 40.1403 57.2377 27.4058 -38.5635 -9.7511 -0.0000 0.0000 -37.4252 -42.3966 50.0807 -35.0011 -7.1250 0.0000 -0.0000 -92.7642 57.2971 -53.4170 -0.0000 -0.0000 0.0000 77.9363 -30.0765 52.9152 -20.8066 31.6019 -5.9482 0.0000 -0.0000 -54.3061 29.6122 -4.4820 -2.5431 7.1250 -0.0000 -0.0000 41.3474 -30.9253 19.1231
3.6591 16.6509 -0.2811 -355.0540 -24.8151 -1048.5900 0.0000 0.0000 0.0000 -2.7974 -25.6151 -43.5276 7.3923 15.6536 50.3431 1.3432 6.3733 20.7393 0.4984 4.5259 12.5611 0.0000 0.0000 0.0000 -0.9062 32.2471 -54.6742 -4.3928 -12.6655 38.1291 0.3076 -9.9640 -5.7188 -0.4121 4.1210 -11.4173 0.7170 -1.9475 14.3866 1.4666 -2.3129 -7.1254 1.9179 -1.0305 -16.1973 -5.3074 1.7589 -9.9934 1.8808 2.8999 22.3425 1.8111 1.0668 8.4853 -0.0000 -0.0000 0.0000 -83.2756 40.1279 57.6070 27.4334 -38.5894 -9.7682 -0.0000 0.0000 -37.4311 -42.8868 49.7507 -35.3336 -7.1250 0.0000 -0.0000 -92.6014 57.0797 -52.8211 -0.0000 -0.0000 0.0000 78.1583 -29.9790 52.5382 -20.6989 31.4752 -5.8919 0.0000 -0.0000 -54.0814 29.9383 -4.5049 -2.5900 7.1250 -0.0000 -0.0000 41.5161 -30.8832 19.3260
3.6559 16.6434 -0.2848 -354.9660 -24.7950 -1048.8600 0.0000 0.0000 0.0000 -2.9991 -25.5971 -43.3176 7.4303 15.6838 50.4836 1.3279 5.9630 20.6372 0.3445 3.7713 10.4343 0.0000 0.0000 0.0000 -0.8878 32.3023 -54.4532 -4.4219 -12.7016 38.2616 0.3200 -10.1552 -5.8105 -0.4543 4.3239 -11.9897 0.5691 -1.9556 14.3780 1.4589 -2.3570 -7.1408 2.0049 -1.0353 -16.2033 -5.1804 1.8341 -9.2913 1.8635 2.9422 20.7894 1.7520 1.1319 7.8355 0.0000 0.0000 0.0000 -83.0818 40.1644 58.0729 27.3807 -38.5399 -9.7354 -0.0000 0.0000 -37.4415 -43.1232 49.6205 -35.5052 -7.1250 0.0000 -0.0000 -92.5652 56.9822 -52.5978 0.0000 0.0000 0.0000 78.3376 -29.9693 52.0837 -20.5778 31.3322 -5.8288 0.0000 -0.0000 -53.7174 30.6320 -3.9801 -2.3536 7.1250 -0.0000 -0.0000 41.6186 -30.2873 20.2993
3.6536 16.6372 -0.2856 -354.6610 -24.7992 -1049.2400 0.0000 0.0000 0.0000 -3.4420 -25.6839 -43.0413 7.4479 15.6978 50.5488 1.3224 5.6937 20.6102 0.2628 3.2983 9.1103 0.0000 0.0000 0.0000 -1.0004 32.1998 -54.2203 -4.4618 -12.7508 38.4425 0.3267 -10.2840 -6.0082 -0.5141 4.5957 -12.7588 0.2969 -1.9647 14.3660 1.4235 -2.4338 -7.1810 2.1405 -1.0433 -16.2321 -5.3814 1.8949 -8.4380 2.1666 2.9493 19.0973 1.8449 1.1852 7.1171 -0.0000 0.0000 0.0000 -82.9953 40.2320 58.4891 27.3172 -38.4800 -9.6959 -0.0000 0.0000 -37.4641 -43.2888 49.6905 -35.6904 -7.1250 0.0000 -0.0000 -92.7679 56.9531 -52.7977 -0.0000 0.0000 0.0000 78.3983 -30.1188 51.6432 -20.4896 31.2277 -5.7830 0.0000 -0.0000 -53.3414 31.2108 -3.4585 -2.0932 7.1250 -0.0000 -0.0000 41.6609 -29.7083 21.2052
3.6538 16.6299 -0.2799 -354.4050 -24.8416 -1049.4500 0.0000 0.0000 0.0000 -3.7639 -25.8337 -42.8189 7.4414 15.6926 50.5246 1.2385 5.8465 19.9168 0.1465 2.4668 6.7976 0.0000 0.0000 0.0000 -1.1049 32.0291 -54.0589 -4.4714 -12.7625 38.4860 0.3192 -10.2564 -6.4080 -0.4930 4.5019 -12.4932 0.1360 -1.9747 14.1580 1.3790 -2.4917 -7.2717 2.1904 -1.0575 -16.2032 -5.7193 1.9646 -7.6257 2.5219 2.9855 17.5182 1.9797 1.2418 6.4522 -0.0000 0.0000 0.0000 -82.9881 40.4308 58.5838 27.4145 -38.5716 -9.7565 -0.0000 0.0000 -37.4230 -43.3228 49.8268 -35.7774 -7.1250 0.0000 -0.0000 -92.9820 56.9766 -53.1087 -0.0000 0.0000 0.0000 78.4647 -30.4002 51.1233 -20.4687 31.2029 -5.7722 0.0000 -0.0000 -52.8429 31.6692 -3.0344 -1.8703 7.1250 -0.0000 -0.0000 41.6855 -29.2341 21.9434
3.6542 16.6217 -0.2778 -354.2340 -24.8717 -1049.5200 0.0000 0.0000 0.0000 -3.9301 -25.9410 -42.7200 7.4407 15.6920 50.5221 1.1478 5.6932 19.1610 0.0352 1.2116 3.3313 0.0000 0.0000 0.0000 -1.1810 31.8718 -54.0614 -4.4797 -12.7727 38.5235 0.3053 -10.1978 -6.9797 -0.4669 4.3828 -12.1561 0.0600 -1.9410 13.9157 1.3061 -2.4756 -7.3572 2.1376 -1.0496 -16.1532 -5.9283 1.9335 -7.4573 2.8124 2.9199 16.6146 2.0847 1.2388 6.1299 -0.0000 0.0000 0.0000 -82.8911 40.4799 58.5326 27.5037 -38.6553 -9.8121 -0.0000 0.0000 -37.4843 -43.4854 49.8806 -35.9536 -7.1250 0.0000 -0.0000 -93.1595 56.9441 -53.2725 -0.0000 0.0000 0.0000 78.8019 -30.4609 50.3090 -20.2953 30.9964 -5.6826 0.0000 -0.0000 -52.2133 32.3116 -2.2883 -1.4466 7.1250 -0.0000 -0.0000 41.6503 -28.4246 23.1330
3.6555 16.6189 -0.2510 -354.4290 -25.0769 -1049.8700 0.0000 0.0000 0.0000 -4.2549 -25.7706 -41.9185 7.4342 15.6869 50.4981 1.1005 4.8245 18.8092 0.0027 -0.3357 -0.9224 0.0000 0.0000 0.0000 -0.6946 31.9335 -53.3245 -4.4499 -12.7361 38.3887 0.2812 -10.0041 -7.4685 -0.4867 4.4736 -12.4130 0.3034 -1.8206 13.9170 1.2472 -2.2669 -7.2795 1.8731 -0.9856 -16.0777 -6.0886 1.8580 -7.4864 3.0732 2.8066 15.9477 2.1757 1.2087 5.9226 0.0000 -0.0000 0.0000 -82.9351 40.4604 58.3378 27.4545 -38.6092 -9.7814 -0.0000 0.0000 -37.5510 -43.8044 50.0046 -36.3075 -7.1250 0.0000 -0.0000 -93.5332 56.8842 -53.6353 0.0000 -0.0000 0.0000 79.0808 -30.4400 49.6453 -20.0858 30.7456 -5.5752 0.0000 -0.0000 -51.8037 32.4540 -2.3227 -1.4764 7.1250 -0.0000 -0.0000 41.7249 -28.4218 23.2158
3.6575 16.5998 -0.2676 -354.4570 -24.7473 -1049.4300 0.0000 0.0000 0.0000 -3.8716 -25.7158 -42.6089 7.4598 15.7072 50.5928 1.0818 3.7169 18.7707 0.0595 -1.5739 -4.3294 0.0000 0.0000 0.0000 -0.8160 31.7786 -53.7449 -4.4145 -12.6925 38.2279 0.2659 -9.9504 -7.9585 -0.3250 3.6640 -10.1331 0.4863 -1.8950 13.5136 1.3391 -2.3257 -7.6280 1.8873 -1.0258 -16.2501 -6.3548 1.8456 -7.3137 3.3328 2.7779 15.5131 2.2898 1.2064 5.7491 0.0000 0.0000 0.0000 -83.2509 40.6774 57.9498 27.3405 -38.5020 -9.7104 -0.0000 0.0000 -37.5613 -43.7745 50.4461 -36.4544 -7.1250 0.0000 -0.0000 -94.1371 56.9946 -54.6035 0.0000 0.0000 0.0000 79.1287 -30.6566 49.2839 -19.9017 30.5237 -5.4813 0.0000 -0.0000 -51.6882 32.4544 -2.7627 -1.7557 7.1250 -0.0000 -0.0000 41.9093 -28.8127 22.8107
3.6598 16.5918 -0.2461 -354.7210 -24.8480 -1049.5300 0.0000 0.0000 0.0000 -3.7991 -25.6779 -42.1889 7.4874 15.7290 50.6946 1.0263 4.2800 18.1945 0.0126 -0.7238 -1.9891 0.0000 0.0000 0.0000 -0.3651 31.8599 -53.1376 -4.3406 -12.6004 37.8904 0.2570 -9.9521 -8.3071 -0.2656 3.3152 -9.1575 0.8085 -1.8358 13.3771 1.3520 -2.1789 -7.7587 1.6804 -0.9930 -16.3400 -6.4240 1.8372 -7.4049 3.4146 2.7678 15.7062 2.3311 1.2005 5.8234 -0.0000 0.0000 0.0000 -83.4646 40.8852 57.5278 27.2340 -38.4014 -9.6441 -0.0000 0.0000 -37.9132 -43.7387 51.1179 -36.6824 -7.1250 0.0000 -0.0000 -95.0640 57.1543 -56.0780 -0.0000 0.0000 0.0000 79.2915 -30.9016 48.7996 -19.6000 30.1574 -5.3289 0.0000 -0.0000 -51.3819 32.5438 -2.6055 -1.6617 7.1250 -0.0000 -0.0000 41.8809 -28.6521 23.0276
3.6506 16.5773 -0.2487 -355.0410 -24.7123 -1049.1900 0.0000 0.0000 0.0000 -3.3098 -25.4364 -42.5748 7.5414 15.7714 50.8936 1.0226 2.5366 18.4306 0.2294 -3.0828 -8.5093 0.0000 0.0000 0.0000 -0.0843 32.0529 -53.0659 -4.2612 -12.5001 37.5247 0.2685 -10.2441 -8.6966 -0.2616 3.2907 -9.0892 1.0330 -1.8482 12.9402 1.4480 -2.1461 -7.9852 1.6450 -0.9984 -16.3440 -6.2630 1.8805 -7.6568 3.3589 2.8271 16.0910 2.3014 1.2286 5.9879 -0.0000 0.0000 0.0000 -83.4803 41.1061 58.0114 26.8381 -38.0244 -9.3992 -0.0000 0.0000 -37.7886 -42.9444 50.6670 -35.7492 -7.1250 0.0000 -0.0000 -93.9386 57.2802 -54.8614 -0.0000 0.0000 0.0000 79.4943 -30.9965 48.4652 -19.2131 29.6826 -5.1360 0.0000 -0.0000 -50.9349 32.4475 -2.7029 -1.7173 7.1250 -0.0000 -0.0000 41.8813 -28.7614 22.8604
3.6422 16.5683 -0.2441 -355.4290 -24.5537 -1049.0600 0.0000 0.0000 0.0000 -2.9204 -25.1728 -42.6873 7.5910 15.8100 51.0756 0.9760 0.2595 18.5928 0.8013 -5.7132 -15.9545 0.0000 0.0000 0.0000 0.4236 32.2218 -52.6194 -4.1585 -12.3684 37.0479 0.2380 -10.2068 -9.5860 -0.1436 2.4417 -6.7282 1.3868 -1.8658 12.6623 1.5309 -2.0939 -8.1610 1.5224 -1.0093 -16.3947 -6.2189 1.9210 -7.8213 3.4432 2.8677 16.5818 2.3349 1.2488 6.1680 0.0000 -0.0000 0.0000 -83.5136 41.2680 58.0518 26.6631 -37.8560 -9.2916 -0.0000 0.0000 -38.0674 -42.1072 51.0238 -35.0926 -7.1250 0.0000 -0.0000 -93.9353 57.6003 -55.4220 0.0000 -0.0000 0.0000 79.5430 -31.1210 48.5961 -18.8855 29.2761 -4.9747 0.0000 -0.0000 -50.9155 32.5147 -2.9558 -1.8826 7.1250 -0.0000 -0.0000 42.0168 -28.9706 22.6786
